<?xml version="1.0" standalone="no"?>
<!DOCTYPE svg PUBLIC "-//W3C//DTD SVG 20010904//EN"
 "http://www.w3.org/TR/2001/REC-SVG-20010904/DTD/svg10.dtd">
<svg version="1.0" xmlns="http://www.w3.org/2000/svg"
 width="334.000000pt" height="401.000000pt" viewBox="0 0 334.000000 401.000000"
 preserveAspectRatio="xMidYMid meet">

<g transform="translate(0.000000,401.000000) scale(0.100000,-0.100000)"
fill="#000000" stroke="none">
<path d="M666 3539 c5 -9 2 -10 -9 -6 -10 3 -17 2 -17 -3 0 -5 -8 -7 -18 -5
-9 1 -30 -8 -45 -21 -22 -18 -27 -30 -22 -47 7 -22 7 -22 -10 -2 -9 11 -14 14
-10 8 3 -7 1 -13 -5 -13 -6 0 -9 -4 -5 -9 3 -5 1 -12 -5 -16 -6 -4 -10 7 -11
27 -1 18 -3 25 -6 15 -3 -11 -11 -16 -19 -13 -8 3 -14 1 -14 -5 0 -6 -4 -7
-10 -4 -6 4 -10 -6 -10 -22 0 -22 -2 -25 -10 -13 -8 11 -9 8 -5 -11 5 -19 2
-28 -9 -32 -10 -4 -16 -19 -16 -39 0 -25 -3 -29 -10 -18 -5 8 -10 11 -10 6 0
-6 -5 -5 -12 2 -18 18 -24 15 -38 -18 -10 -24 -10 -37 -1 -56 9 -22 9 -24 -7
-22 -18 3 -19 -2 -7 -39 3 -13 3 -23 -2 -23 -15 0 -13 -44 3 -78 9 -18 13 -40
10 -47 -3 -8 -1 -17 5 -21 5 -3 8 -24 5 -47 -4 -43 13 -77 39 -77 19 0 26 -40
9 -47 -22 -8 -17 -17 17 -32 18 -8 34 -22 36 -32 3 -11 14 -19 24 -19 11 0 19
-7 19 -15 0 -8 5 -15 11 -15 5 0 7 -6 3 -12 -5 -9 -2 -9 9 1 15 12 17 11 17
-4 0 -12 6 -16 20 -12 12 3 18 1 14 -5 -3 -5 -15 -7 -26 -5 -14 4 -18 1 -14
-8 2 -7 -2 -19 -9 -25 -19 -16 -10 -31 13 -23 11 4 6 -5 -12 -25 -29 -31 -29
-32 -10 -46 18 -14 18 -15 -8 -25 -16 -6 -28 -17 -28 -26 0 -8 -6 -15 -12 -15
-10 0 -9 -3 1 -9 10 -6 5 -11 -20 -16 -28 -6 -31 -9 -17 -19 14 -10 14 -15 1
-39 -7 -15 -11 -32 -8 -38 4 -5 1 -17 -7 -26 -11 -13 -10 -18 3 -26 14 -9 14
-12 -4 -30 -11 -11 -15 -22 -10 -26 6 -3 9 -17 8 -31 -3 -32 11 -70 32 -85 8
-6 15 -25 15 -41 0 -16 6 -41 14 -55 7 -15 10 -29 7 -33 -12 -12 13 -6 26 7
11 10 12 6 7 -19 -5 -24 -3 -33 10 -38 9 -3 14 -13 11 -20 -3 -8 0 -20 8 -26
8 -6 11 -18 8 -26 -3 -9 0 -14 7 -12 8 2 19 -8 27 -22 7 -14 13 -19 13 -12 0
6 5 12 11 12 8 0 10 -12 6 -34 -4 -28 -3 -34 9 -29 9 3 12 0 9 -9 -4 -9 7 -21
32 -34 21 -10 43 -25 48 -32 6 -7 17 -14 25 -16 32 -5 81 -38 92 -61 14 -30
-2 -52 -40 -57 -17 -2 -28 -10 -30 -22 -2 -10 -13 -28 -23 -39 -10 -12 -19
-29 -19 -39 0 -10 -13 -36 -29 -58 -21 -29 -29 -52 -29 -85 -1 -25 -6 -54 -12
-65 -12 -23 -15 -161 -4 -205 4 -16 13 -40 21 -54 7 -14 16 -42 19 -62 4 -21
19 -51 35 -69 27 -29 42 -89 19 -75 -5 3 -10 13 -10 21 0 8 -4 14 -10 14 -5 0
-10 -6 -10 -12 0 -9 -3 -9 -8 -3 -9 14 -65 14 -74 0 -4 -6 -13 -2 -22 10 -9
11 -16 15 -16 10 0 -7 -32 -11 -85 -10 -47 1 -85 -2 -85 -7 0 -4 -18 -11 -41
-14 -29 -5 -39 -11 -35 -21 3 -8 2 -12 -3 -8 -14 8 -42 -6 -35 -17 3 -5 -3
-16 -14 -23 -13 -10 -18 -22 -15 -40 3 -14 1 -25 -5 -25 -10 0 -35 -53 -37
-80 -1 -8 -6 -25 -13 -37 -7 -12 -9 -29 -6 -38 7 -16 10 -39 13 -81 0 -11 10
-30 21 -42 11 -12 21 -29 23 -39 5 -30 20 -48 86 -103 l63 -53 115 -6 c63 -3
154 -2 201 2 48 4 188 10 312 12 256 5 386 11 514 25 90 9 186 8 396 -6 150
-10 159 -10 335 2 238 15 286 13 319 -14 26 -20 40 -22 151 -22 185 0 213 8
284 79 36 36 62 71 66 90 4 17 10 31 15 31 12 0 25 85 22 140 -3 50 -20 102
-32 95 -4 -2 -16 5 -26 16 -10 11 -35 30 -56 41 -38 22 -38 22 -16 35 13 7 18
12 11 13 -7 0 -10 10 -7 25 4 22 1 25 -46 31 -32 4 -50 11 -50 20 0 19 -10 18
-26 -3 -12 -17 -13 -16 -14 6 0 13 -3 21 -7 18 -3 -4 -12 -2 -20 4 -9 9 -13 8
-13 0 0 -15 -25 -14 -50 1 -16 10 -23 10 -36 -4 -12 -12 -23 -14 -39 -8 -17 6
-28 4 -43 -10 -14 -14 -22 -16 -25 -7 -2 7 -10 0 -17 -16 -9 -17 -21 -27 -34
-26 -20 0 -20 1 2 9 12 5 22 14 22 21 0 6 -6 9 -14 6 -10 -4 -18 4 -25 21 -5
15 -10 20 -10 12 -1 -13 -2 -13 -11 0 -8 12 -10 11 -10 -7 0 -13 -4 -23 -9
-23 -5 0 -7 9 -4 20 3 11 1 20 -5 20 -15 0 -24 -36 -18 -68 3 -15 2 -34 -4
-42 -9 -13 -10 -13 -10 0 0 10 -11 3 -31 -17 -29 -32 -47 -43 -34 -23 3 6 -1
10 -9 10 -8 0 -20 8 -25 18 -9 15 -11 14 -12 -8 -1 -23 -2 -23 -9 5 -6 22 -8
25 -10 10 -2 -17 -3 -16 -9 5 -6 22 -9 20 -20 -25 -8 -32 -15 -45 -20 -36 -7
10 -10 10 -16 1 -4 -7 -1 -17 6 -22 11 -8 10 -9 -3 -4 -11 3 -25 -4 -38 -21
-11 -14 -20 -22 -20 -18 0 4 -8 1 -17 -6 -13 -11 -13 -8 2 12 11 15 23 25 26
23 3 -2 6 4 6 13 0 12 -4 11 -18 -6 -10 -12 -23 -19 -29 -16 -8 5 -6 12 4 24
12 13 13 20 4 29 -13 13 8 46 23 36 23 -14 36 24 38 115 1 59 7 104 17 122 8
17 10 29 4 29 -5 0 -10 7 -10 16 0 14 -2 15 -17 3 -15 -13 -15 -12 -4 9 7 13
17 20 24 16 7 -4 9 -3 4 1 -4 5 3 19 15 32 12 13 16 23 9 23 -7 0 -9 5 -5 13
4 7 3 9 -2 4 -5 -5 -9 -12 -9 -17 0 -4 -15 -26 -32 -48 -24 -30 -38 -39 -53
-35 -29 8 -25 17 27 63 44 38 67 77 40 67 -7 -3 -11 -10 -9 -16 1 -7 -2 -10
-7 -7 -5 4 -13 2 -16 -4 -4 -6 -16 -8 -27 -4 -13 4 -18 2 -14 -4 7 -12 -48
-27 -64 -17 -6 4 -22 0 -35 -9 -19 -12 -23 -13 -19 -2 5 14 26 26 87 50 20 8
37 21 37 28 0 8 -3 9 -8 3 -4 -5 -15 -11 -25 -12 -16 -1 -15 3 8 27 15 15 38
30 51 33 24 4 24 3 8 -14 -32 -36 3 -19 43 20 60 60 95 121 61 108 -7 -2 -12
-10 -10 -16 1 -6 -5 -11 -13 -11 -8 0 -15 -4 -15 -9 0 -12 -49 -20 -53 -8 -2
6 -12 5 -27 -2 -22 -11 -23 -10 -8 2 10 8 15 16 13 19 -3 3 4 13 15 23 11 10
20 23 20 30 0 18 67 78 92 82 18 3 16 -2 -15 -32 -20 -20 -37 -42 -37 -49 0
-8 -7 -19 -15 -26 -21 -18 -11 -24 14 -10 12 6 19 15 16 21 -4 5 -2 8 4 7 5
-2 17 6 25 17 11 14 15 16 16 6 0 -11 4 -10 16 5 15 19 15 19 10 -1 -3 -11 -2
-33 3 -50 5 -16 10 -22 10 -12 1 16 3 16 23 -3 25 -23 34 -25 41 -7 4 9 6 9 6
-1 1 -8 15 -27 31 -44 30 -29 30 -30 19 -4 -7 14 -15 26 -19 26 -15 0 -60 80
-60 105 0 15 -4 35 -10 45 -8 16 -6 18 19 16 37 -3 31 17 -10 34 -16 7 -26 16
-24 21 3 4 -3 12 -12 18 -14 8 -15 10 -3 11 9 0 2 9 -15 20 -16 11 -41 18 -55
16 -14 -2 -31 1 -37 7 -14 10 -18 39 -5 35 4 -2 21 9 37 24 16 15 32 25 37 22
4 -3 5 3 1 12 -4 11 -2 15 4 11 5 -4 15 5 22 19 6 14 16 22 21 19 6 -3 10 3
10 14 0 25 19 38 31 20 13 -19 6 27 -9 64 -13 30 -22 36 -16 10 7 -28 -11 -49
-29 -35 -7 7 -17 9 -20 5 -4 -3 -7 -1 -7 6 0 11 -17 36 -62 90 -6 8 -13 26
-14 40 l-3 26 22 -27 c12 -15 29 -36 37 -48 15 -21 15 -21 15 9 0 17 -3 31 -7
31 -5 0 -8 6 -8 14 0 8 -9 18 -20 21 -11 3 -20 10 -20 15 0 6 11 5 26 0 21 -9
25 -8 21 4 -3 8 -1 17 6 19 22 7 -11 34 -48 40 -43 7 -139 53 -157 75 -10 12
-10 14 0 8 26 -16 10 14 -20 35 l-31 23 7 -30 c4 -16 17 -37 29 -46 12 -10 19
-18 16 -18 -3 0 -24 14 -45 31 l-39 31 -8 -44 c-22 -113 -68 -228 -111 -277
-48 -53 -144 -101 -205 -101 -16 0 -21 6 -21 25 0 17 -17 42 -56 79 -32 30
-53 59 -50 65 8 12 116 13 156 2 53 -15 170 36 170 75 0 19 -6 18 -44 -11 -42
-32 -77 -32 -117 2 -31 27 -68 93 -69 123 0 9 27 36 60 60 32 25 64 57 71 72
13 31 8 64 -9 60 -7 -1 -15 4 -18 12 -3 8 -28 22 -55 31 -44 15 -48 19 -43 40
5 22 2 24 -41 30 -25 4 -63 5 -84 1 -44 -7 -196 -76 -258 -118 -23 -15 -46
-28 -51 -28 -6 0 -12 -6 -15 -12 -2 -7 -7 -10 -11 -7 -12 11 37 103 80 149 43
46 150 120 173 120 7 0 28 7 49 16 51 23 62 26 105 26 29 0 37 4 37 19 0 9 -7
24 -15 33 -19 19 -19 30 0 22 10 -3 15 1 16 12 0 14 2 14 9 -3 5 -11 11 -29
15 -40 5 -16 8 -17 15 -5 9 13 10 13 10 0 1 -9 5 -6 10 8 5 12 15 22 22 22 9
0 9 3 -2 10 -13 8 -12 10 3 10 9 0 17 5 17 11 0 5 5 7 11 3 8 -4 7 -9 -2 -15
-11 -8 -10 -12 5 -24 16 -12 17 -15 4 -15 -8 0 -22 -7 -29 -17 -13 -15 -11
-15 18 1 18 9 32 20 31 24 -1 4 6 26 16 48 13 32 23 42 41 42 16 0 22 -5 18
-14 -8 -21 7 -17 28 7 17 19 19 20 25 5 4 -9 0 -24 -9 -34 -20 -22 -47 -116
-47 -162 0 -45 38 -105 90 -142 91 -66 190 -10 190 105 0 90 -54 147 -140 147
-42 1 -44 2 -26 15 11 8 37 15 58 15 130 0 223 -160 157 -270 l-21 -35 44 42
c43 43 44 43 61 23 10 -12 21 -19 25 -17 4 2 30 14 57 27 42 19 47 24 30 30
-17 6 -15 8 13 14 18 4 29 12 26 17 -3 6 -8 8 -12 5 -7 -8 -52 55 -52 74 0 9
-4 20 -8 25 -17 20 -32 65 -21 65 5 0 16 -15 24 -32 15 -37 55 -68 55 -44 0 8
-5 18 -10 21 -6 4 -8 10 -5 15 3 5 -1 23 -10 39 -8 17 -15 39 -15 51 0 11 -4
20 -10 20 -5 0 -10 7 -10 15 0 8 -5 15 -11 15 -5 0 -8 4 -5 9 3 4 -6 13 -20
20 -17 7 -24 17 -20 27 3 8 -1 17 -9 20 -7 3 -12 11 -9 17 7 19 -52 77 -93 92
l-38 14 38 0 c23 1 36 -3 32 -9 -8 -13 1 -13 26 0 23 13 25 30 4 30 -8 0 -15
4 -15 8 0 18 -48 30 -83 22 -20 -4 -39 -5 -42 -2 -10 10 -37 11 -61 2 -30 -12
-32 3 -3 24 12 8 18 19 15 25 -5 7 0 9 11 5 14 -4 15 -3 4 4 -11 8 -10 14 4
38 l17 29 -26 -30 c-15 -16 -29 -40 -32 -52 -4 -13 -10 -23 -16 -23 -5 0 -7 3
-5 8 3 4 -1 13 -9 20 -11 10 -15 8 -20 -12 -4 -16 -11 -23 -20 -19 -8 3 -17
-2 -20 -11 -3 -9 -10 -16 -15 -16 -11 0 -12 27 -1 32 13 5 63 78 54 78 -30 0
-133 -177 -111 -191 9 -5 -11 -27 -38 -43 -14 -8 -7 19 10 42 8 10 7 16 -1 21
-9 5 -6 18 13 45 14 21 21 35 15 31 -13 -8 -13 1 0 26 9 16 7 19 -10 19 -15 0
-20 7 -20 26 0 14 4 23 9 20 4 -3 6 6 3 19 -4 26 -25 48 -21 24 2 -15 -2 -28
-37 -107 -13 -29 -22 -58 -20 -65 1 -7 1 -8 -2 -4 -2 5 -12 1 -21 -7 -15 -14
-17 -13 -18 17 -2 25 0 28 6 12 7 -17 9 -15 19 15 18 58 23 108 10 116 -7 4
-8 3 -4 -5 4 -6 0 -14 -8 -17 -9 -3 -14 -10 -11 -14 3 -5 1 -11 -5 -15 -5 -3
-10 -15 -10 -26 0 -10 -7 -19 -15 -19 -11 0 -12 5 -5 26 13 32 13 31 -5 31 -8
0 -12 -4 -10 -8 3 -4 -2 -26 -10 -49 -12 -35 -13 -46 -3 -58 11 -13 10 -14
-10 -3 -18 9 -21 16 -12 25 5 8 7 22 3 31 -4 13 -3 16 5 11 8 -5 12 2 12 23 0
16 5 42 10 56 7 17 7 32 0 43 -8 14 -9 14 -10 2 0 -13 -1 -13 -10 0 -8 13 -10
12 -10 -2 0 -10 -4 -18 -10 -18 -5 0 -10 -7 -10 -15 0 -8 -4 -15 -10 -15 -5 0
-10 6 -10 14 0 8 -4 17 -8 20 -5 3 -8 -9 -7 -27 3 -47 -4 -61 -21 -40 -7 10
-14 27 -14 38 -1 11 -10 38 -21 60 -11 23 -17 29 -13 15 14 -58 13 -72 -1 -35
-9 22 -13 51 -10 66 5 20 1 28 -20 37 -23 11 -25 16 -20 46 5 25 3 35 -9 39
-11 5 -16 1 -16 -13 0 -34 -17 -22 -34 25 -21 54 -33 58 -31 10 1 -31 -1 -33
-15 -20 -22 20 -30 19 -25 -5 3 -17 1 -18 -16 -7 -10 6 -19 15 -19 18 0 15
-41 17 -47 2 -4 -11 -8 -12 -13 -3 -4 7 -13 9 -20 5 -9 -6 -6 -13 11 -27 23
-19 23 -19 2 -8 -34 16 -28 6 25 -44 81 -76 103 -91 112 -76 4 7 13 9 19 6 6
-4 11 -2 11 3 0 6 9 11 20 11 18 0 20 4 15 38 l-6 37 19 -40 c13 -27 15 -42 8
-45 -13 -6 -15 -25 -3 -36 11 -11 9 -26 -3 -19 -6 4 -1 -17 10 -45 11 -29 19
-57 18 -63 -1 -7 2 -22 6 -35 20 -59 -27 -25 -49 35 -7 21 -14 32 -14 25 -2
-25 -38 24 -71 97 -11 24 -23 41 -27 38 -3 -4 0 -14 7 -22 11 -14 10 -17 -8
-22 -13 -3 -19 -10 -15 -17 3 -6 -11 5 -31 24 -29 27 -37 31 -34 16 5 -30 -19
-30 -44 0 -13 14 -38 43 -55 63 -51 56 -43 69 15 24 28 -21 34 -23 29 -9 -5
14 -3 17 8 12 23 -8 19 -1 -22 39 -67 64 -73 69 -73 57 0 -8 -18 -10 -61 -5
-46 5 -63 3 -69 -8 -6 -8 -24 -13 -49 -12 -23 1 -41 -2 -41 -8 0 -5 -18 -9
-39 -9 -22 0 -43 -4 -46 -10 -3 -5 -1 -10 6 -10 7 0 10 -2 8 -5 -3 -2 -15 -2
-27 2 -26 6 -29 29 -4 37 9 3 22 16 27 28 6 13 21 25 34 26 20 3 22 8 17 33
-3 17 -1 29 5 29 6 0 7 5 3 11 -4 8 -9 7 -15 -2 -6 -11 -9 -10 -15 4 -3 9 -17
17 -29 17 -13 0 -33 12 -47 28 -25 30 -28 32 -59 32 -11 0 -18 4 -15 9 3 5 -1
11 -9 15 -10 3 -15 -1 -15 -12 -1 -15 -2 -15 -13 -2 -15 19 -103 27 -91 9z
m-169 -171 c-3 -8 -6 -5 -6 6 -1 11 2 17 5 13 3 -3 4 -12 1 -19z m627 -89 c-4
-8 4 -9 27 -5 19 3 28 3 21 0 -10 -5 -9 -11 5 -26 18 -20 18 -21 -4 -9 -12 6
-34 16 -49 22 -23 8 -25 12 -14 19 20 13 23 12 14 -1z m-12 -36 c21 -11 34
-24 30 -28 -4 -4 3 -5 16 -2 12 3 20 1 16 -4 -3 -5 2 -9 10 -9 9 0 16 -5 16
-10 0 -7 -6 -7 -17 -2 -10 5 -29 6 -43 2 -24 -6 -23 -7 21 -36 86 -53 87 -55
57 -44 -31 10 -75 37 -97 58 -8 8 -25 18 -38 23 -31 12 -113 12 -95 0 10 -6 7
-10 -12 -13 -31 -6 -43 17 -16 32 16 8 18 15 10 35 -9 23 -8 25 15 19 14 -3
25 -2 25 4 0 14 56 0 102 -25z m-282 -8 c0 -8 -7 -15 -15 -15 -26 0 -18 20 13
29 1 1 2 -6 2 -14z m395 -23 c-3 -3 -11 0 -18 7 -9 10 -8 11 6 5 10 -3 15 -9
12 -12z m-395 -12 c12 -8 12 -10 -5 -10 -13 0 -6 -7 19 -18 l40 -18 -43 -20
c-35 -17 -49 -19 -67 -10 -22 10 -22 11 -4 14 26 4 26 19 0 27 -22 7 -18 25 6
25 8 0 12 -4 9 -10 -3 -5 -1 -10 5 -10 7 0 9 8 5 20 -7 22 9 27 35 10z m284
-89 c16 -18 14 -19 -45 -25 -70 -8 -87 -1 -41 16 18 7 32 16 32 20 0 15 37 8
54 -11z m276 -12 c0 -4 -11 -2 -24 4 -13 7 -22 15 -20 19 5 8 44 -13 44 -23z
m-511 -5 c2 -2 -27 -4 -65 -5 -56 0 -64 -2 -44 -10 20 -8 22 -12 10 -19 -8 -5
-23 -10 -32 -10 -10 0 -18 -7 -18 -15 0 -8 8 -15 18 -15 15 -1 14 -2 -3 -12
-11 -7 -26 -18 -33 -25 -8 -7 -17 -11 -22 -8 -4 3 -13 -2 -20 -10 -7 -8 -18
-15 -25 -15 -20 0 -6 38 17 46 14 4 16 9 8 19 -8 10 -4 16 19 26 16 7 28 16
25 20 -2 4 7 16 21 27 21 17 35 20 83 15 31 -3 59 -7 61 -9z m391 -5 c0 -6 -4
-7 -10 -4 -5 3 -10 11 -10 16 0 6 5 7 10 4 6 -3 10 -11 10 -16z m41 -1 c11
-13 24 -31 29 -40 8 -14 7 -16 -5 -12 -8 4 -15 11 -15 18 0 6 -9 17 -20 24
-11 7 -20 17 -20 22 0 16 10 12 31 -12z m78 -23 c28 -33 36 -45 28 -45 -2 0
-21 18 -42 40 -21 22 -34 40 -28 40 6 0 25 -16 42 -35z m-119 -40 c14 -19 14
-19 -2 -6 -10 7 -18 18 -18 24 0 6 1 8 3 6 1 -2 9 -13 17 -24z m-300 -14 c19
-1 -48 -59 -78 -67 -18 -5 -21 -9 -10 -15 9 -6 6 -9 -10 -9 -13 0 -33 -5 -45
-11 -20 -9 -20 -9 -4 4 9 8 17 22 17 31 0 9 5 16 10 16 6 0 10 8 10 18 0 20
34 38 70 35 14 -1 32 -2 40 -2z m667 -23 c-3 -7 -5 -2 -5 12 0 14 2 19 5 13 2
-7 2 -19 0 -25z m173 -22 c0 -8 -4 -17 -8 -20 -4 -2 -8 4 -8 15 0 10 4 19 8
19 4 0 8 -6 8 -14z m230 -26 c0 -5 -5 -10 -11 -10 -5 0 -7 5 -4 10 3 6 8 10
11 10 2 0 4 -4 4 -10z m-1373 -16 c-3 -3 -12 -4 -19 -1 -8 3 -5 6 6 6 11 1 17
-2 13 -5z m1370 -19 c0 -8 -4 -12 -9 -9 -5 3 -6 10 -3 15 9 13 12 11 12 -6z
m-327 -57 c0 -19 -20 -5 -26 17 -3 14 -10 25 -16 25 -5 0 -6 5 -2 11 6 10 44
-35 44 -53z m95 23 c-21 -43 -29 -39 -8 4 9 19 18 33 21 31 2 -2 -4 -18 -13
-35z m212 -29 c-9 -10 -26 -39 -37 -64 -20 -45 -40 -70 -40 -49 0 5 5 13 11
16 5 4 9 14 7 23 -2 10 0 22 4 27 39 51 61 75 66 70 3 -2 -2 -13 -11 -23z
m-1367 -12 c-20 -13 -43 -13 -35 0 3 6 16 10 28 10 18 0 19 -2 7 -10z m1121
-27 c-12 -20 -14 -14 -5 12 4 9 9 14 11 11 3 -2 0 -13 -6 -23z m121 -56 c-7
-8 -8 -18 -4 -22 4 -5 1 -5 -6 -1 -9 5 -9 12 -1 27 6 12 13 18 16 15 3 -3 1
-12 -5 -19z m-1097 3 c-3 -5 -12 -10 -18 -10 -7 0 -6 4 3 10 19 12 23 12 15 0z
m1065 -34 c0 -3 -4 -8 -10 -11 -5 -3 -10 -1 -10 4 0 6 5 11 10 11 6 0 10 -2
10 -4z m-171 -71 l0 -20 -9 20 c-5 11 -9 27 -9 35 -1 13 0 13 9 0 5 -8 9 -24
9 -35z m-477 -40 c-80 -25 -105 -60 -112 -160 -4 -54 -9 -71 -22 -73 -11 -2
-20 8 -28 33 -33 100 54 216 160 214 l45 0 -43 -14z m108 -113 c0 -15 -2 -15
-10 -2 -13 20 -13 33 0 25 6 -3 10 -14 10 -23z m883 4 c6 -16 -2 -28 -14 -20
-12 7 -11 34 0 34 5 0 11 -6 14 -14z m-1560 -228 c-32 -36 -39 -55 -10 -29 20
18 25 20 23 6 -4 -25 -56 -51 -56 -27 0 15 40 72 52 72 6 0 3 -10 -9 -22z m21
-135 c-24 -38 -44 -57 -51 -49 -6 6 55 76 65 76 2 0 -4 -12 -14 -27z m996 -48
c0 -26 -14 -33 -25 -15 -9 14 1 40 15 40 5 0 10 -11 10 -25z m645 -673 c-6 -4
-18 -15 -27 -25 -16 -16 -17 -16 -15 2 0 11 4 18 8 15 4 -2 10 0 14 6 3 5 12
10 18 10 8 0 8 -3 2 -8z m-1015 -279 c4 1 30 -27 57 -63 27 -36 72 -89 101
-119 33 -35 54 -66 58 -88 3 -18 11 -33 17 -33 6 0 7 -3 4 -7 -4 -3 1 -16 12
-27 13 -14 18 -30 14 -48 -3 -15 -9 -26 -13 -23 -5 3 -15 2 -23 -1 -13 -5 -13
-10 5 -40 11 -19 17 -41 14 -50 -6 -15 -9 -15 -27 2 l-21 19 21 -35 c11 -19
21 -39 21 -45 0 -5 -5 -2 -11 7 -11 19 -99 83 -99 72 0 -4 -9 1 -20 11 -11 10
-20 14 -20 10 0 -7 -62 54 -113 113 -18 20 -18 20 2 15 12 -3 32 -19 46 -35
16 -18 25 -24 25 -15 0 9 -4 17 -8 19 -4 2 -19 19 -32 38 l-25 34 37 -22 c35
-22 37 -22 48 -5 10 16 11 16 6 1 -3 -11 3 -23 14 -31 11 -8 17 -16 15 -19 -3
-3 6 -3 20 0 l26 5 -27 18 c-29 19 -43 52 -18 42 29 -11 12 6 -31 32 -25 14
-59 27 -76 27 -20 1 -28 5 -25 14 3 9 0 11 -11 7 -12 -5 -15 -2 -11 9 4 9 1
21 -5 27 -8 8 -5 11 10 11 12 0 24 -4 28 -9 3 -6 14 -9 24 -8 16 1 18 4 9 22
-21 38 -89 93 -110 87 -4 -1 -5 4 -2 12 3 9 14 12 27 8 17 -4 13 3 -18 33 -35
32 -37 36 -15 30 33 -10 47 -13 38 -8 -21 12 -4 21 23 13 17 -5 35 -8 39 -7z
m912 -48 l38 0 -23 -22 c-12 -12 -42 -24 -67 -28 -33 -4 -41 -3 -30 4 13 9 13
11 -2 11 -27 0 -22 19 7 26 14 3 25 11 25 18 0 7 3 8 8 1 4 -6 24 -11 44 -10z
m53 -115 c5 -8 12 -7 23 2 15 12 16 11 4 -4 -8 -9 -11 -21 -8 -27 4 -5 -8 -17
-26 -25 l-32 -16 22 23 c23 25 28 37 13 37 -5 0 -12 -8 -15 -17 -16 -44 -39
-73 -56 -73 -12 0 -17 5 -14 13 3 8 -5 18 -18 25 -17 8 -19 11 -6 11 9 1 20 6
24 13 4 7 3 8 -4 4 -7 -4 -12 -4 -12 -1 0 6 79 44 92 45 4 0 10 -5 13 -10z
m-105 -16 c0 -5 -49 -27 -90 -39 -17 -5 -22 -4 -15 3 25 27 105 54 105 36z
m-1023 -61 c0 -13 -4 -11 -19 7 -10 12 -18 27 -18 33 0 5 8 3 18 -6 10 -10 19
-25 19 -34z m68 27 c3 -5 1 -10 -4 -10 -6 0 -11 5 -11 10 0 6 2 10 4 10 3 0 8
-4 11 -10z m1035 -49 c-12 -18 -16 -32 -10 -36 5 -3 10 -1 10 6 0 7 3 9 6 6 4
-4 1 -13 -6 -22 -7 -8 -9 -15 -5 -15 11 0 -15 -29 -36 -40 -13 -8 -17 -6 -15
7 2 10 11 20 22 23 20 5 31 30 14 30 -5 0 -10 -4 -10 -8 0 -5 -6 -9 -14 -9 -9
0 -2 16 21 44 40 49 55 58 23 14z m-111 -37 c-13 -14 -33 -30 -44 -35 -11 -6
-2 6 19 26 46 41 60 46 25 9z m-1329 -14 c0 -5 -5 -10 -11 -10 -5 0 -7 5 -4
10 3 6 8 10 11 10 2 0 4 -4 4 -10z m1344 -37 c-16 -13 -37 -29 -47 -34 -15 -9
-14 -5 5 24 12 19 28 33 35 30 7 -3 16 3 20 13 5 13 8 14 11 4 3 -7 -8 -24
-24 -37z m90 -44 c-20 -22 -33 -17 -14 6 7 8 9 15 5 15 -4 0 -1 7 6 17 13 15
14 15 17 -1 2 -10 -4 -26 -14 -37z m640 -9 c19 -7 26 -17 26 -35 0 -24 -31
-65 -49 -65 -20 0 -41 33 -41 65 0 42 19 53 64 35z m-2306 -22 c11 -11 18 -68
8 -68 -2 0 -11 -3 -20 -6 -11 -4 -16 0 -16 14 0 11 -10 27 -22 35 -20 14 -21
18 -8 26 20 14 43 14 58 -1z m-95 -65 c17 -29 17 -31 -1 -53 -14 -17 -24 -21
-41 -15 -17 5 -20 10 -12 18 16 16 14 42 -5 58 -14 12 -14 14 3 20 26 11 36 6
56 -28z m2569 20 c24 -21 23 -58 -2 -83 -22 -22 -46 -18 -72 14 -22 26 -23 50
-2 70 20 21 53 20 76 -1z m-2638 -116 c17 -25 12 -63 -9 -71 -7 -2 -23 6 -36
20 -12 13 -28 24 -36 24 -7 0 -13 6 -13 13 0 40 70 51 94 14z m2680 -3 c20
-20 20 -34 0 -62 -15 -22 -39 -21 -31 1 2 7 1 24 -4 39 -11 40 7 51 35 22z"/>
<path d="M1400 720 c0 -5 5 -10 11 -10 5 0 7 5 4 10 -3 6 -8 10 -11 10 -2 0
-4 -4 -4 -10z"/>
<path d="M2537 3534 c-3 -4 -18 -8 -32 -10 -14 -1 -32 -8 -40 -14 -8 -7 -15
-9 -15 -4 0 4 -10 -1 -22 -12 -27 -24 -45 -25 -58 -4 -7 12 -11 8 -16 -18 -6
-29 -8 -31 -20 -15 -8 11 -13 13 -14 6 0 -7 -7 -13 -15 -13 -19 0 -20 -34 -1
-49 7 -6 20 -9 28 -6 9 4 23 -1 31 -10 13 -13 21 -14 38 -5 19 11 20 10 14 -9
-4 -15 1 -28 19 -46 14 -14 26 -30 26 -34 0 -13 25 -20 48 -14 17 4 20 1 16
-15 -4 -14 1 -21 18 -27 13 -4 27 -7 31 -6 5 1 6 -3 2 -9 -3 -6 -10 -8 -15 -5
-5 3 -12 1 -15 -5 -4 -6 -3 -10 2 -9 27 5 35 -1 23 -16 -10 -12 -9 -15 4 -15
10 0 15 -4 11 -9 -3 -6 3 -14 12 -20 10 -6 14 -11 9 -11 -5 0 -3 -6 3 -14 9
-11 8 -15 -5 -20 -14 -5 -13 -9 9 -26 14 -11 30 -20 36 -20 6 0 10 -3 9 -7 -3
-11 31 -63 59 -90 17 -16 19 -22 8 -27 -11 -4 -12 -12 -4 -38 5 -18 13 -34 18
-36 5 -2 7 -12 4 -22 -3 -12 0 -20 6 -20 7 0 9 4 6 10 -4 7 3 7 20 0 39 -15
55 -13 48 6 -4 11 1 22 13 31 16 12 17 15 4 23 -11 7 -8 10 15 11 29 1 30 1 5
9 -17 5 -19 8 -7 9 11 1 17 9 17 26 0 14 5 25 11 25 5 0 7 5 4 10 -4 6 0 23 8
39 21 42 -4 29 -27 -14 -10 -19 -23 -32 -27 -29 -10 6 0 63 12 80 15 19 19 95
5 100 -13 5 -15 32 -3 51 7 11 -9 71 -24 88 -5 5 -9 15 -9 23 0 8 -12 29 -27
46 -16 18 -37 44 -48 58 -11 13 -45 43 -76 65 -49 37 -57 39 -67 24 -10 -15
-11 -15 -11 2 -1 20 -30 23 -51 5 -12 -11 -12 -10 -1 5 13 17 11 34 -2 21z"/>
<path d="M1316 3493 c-4 -4 14 -27 41 -50 27 -24 50 -38 54 -32 3 6 16 -1 28
-18 l23 -28 -19 35 c-14 25 -26 35 -41 34 -17 -1 -22 4 -22 22 0 31 -45 56
-64 37z"/>
<path d="M1267 3484 c-12 -13 -8 -21 16 -29 14 -4 17 -8 9 -12 -10 -4 -9 -8 5
-19 16 -12 16 -13 -7 -7 -14 3 -30 12 -37 20 -6 8 -13 11 -16 6 -8 -13 88 -74
106 -67 23 8 3 58 -29 73 -15 6 -22 16 -18 23 4 6 3 8 -4 4 -5 -3 -12 -1 -14
5 -2 5 -7 7 -11 3z"/>
<path d="M1425 3482 c-2 -3 7 -26 21 -53 l26 -47 24 25 c24 26 31 38 16 29 -5
-3 -15 5 -22 18 -11 22 -53 40 -65 28z"/>
<path d="M1390 3468 c0 -9 5 -20 10 -23 13 -8 13 5 0 25 -8 13 -10 13 -10 -2z"/>
<path d="M1865 3462 c-5 -4 -11 -16 -12 -27 -1 -11 0 -14 3 -7 3 6 10 10 15 6
5 -3 9 4 9 15 0 23 -1 24 -15 13z"/>
<path d="M1125 3440 c-7 -12 -9 -11 40 -15 37 -4 38 -3 21 11 -23 16 -52 18
-61 4z"/>
<path d="M985 3410 c-9 -15 37 -30 52 -18 7 6 10 14 7 19 -7 12 -51 11 -59 -1z"/>
<path d="M1691 3278 c5 -18 9 -34 9 -35 0 -2 5 -3 10 -3 14 0 13 43 -2 58 -21
21 -27 13 -17 -20z"/>
<path d="M1830 3278 c-22 -24 -27 -52 -7 -45 6 2 11 10 10 16 -2 6 1 11 6 11
5 0 11 9 14 20 7 25 3 25 -23 -2z"/>
<path d="M1888 3290 c-9 -6 -22 -26 -28 -46 -11 -31 -10 -37 7 -49 35 -27 85
4 89 55 2 24 -2 30 -17 30 -10 0 -19 5 -19 10 0 12 -10 12 -32 0z"/>
<path d="M1631 3224 c0 -11 3 -14 6 -6 3 7 2 16 -1 19 -3 4 -6 -2 -5 -13z"/>
<path d="M1711 3134 c0 -11 3 -14 6 -6 3 7 2 16 -1 19 -3 4 -6 -2 -5 -13z"/>
<path d="M1516 3105 c8 -37 14 -45 14 -19 0 10 -5 26 -10 34 -8 11 -9 7 -4
-15z"/>
<path d="M1832 3100 c0 -14 2 -19 5 -12 2 6 2 18 0 25 -3 6 -5 1 -5 -13z"/>
<path d="M2445 2780 c-3 -5 -4 -10 -1 -10 2 0 12 -3 20 -6 12 -5 15 -2 10 10
-7 18 -20 21 -29 6z"/>
<path d="M2210 2169 c0 -14 62 -49 74 -41 6 3 22 5 36 4 17 -1 13 3 -15 13
-22 9 -47 18 -55 22 -26 11 -40 12 -40 2z"/>
<path d="M2228 2115 c9 -13 19 -23 22 -22 3 1 22 -5 43 -12 21 -7 41 -10 44
-7 4 3 -1 6 -10 6 -9 0 -17 5 -17 10 0 6 -6 10 -13 10 -7 0 -29 8 -49 19 l-37
18 17 -22z"/>
<path d="M2440 2061 c0 -5 7 -15 17 -22 15 -13 15 -12 4 9 -12 23 -21 28 -21
13z"/>
<path d="M2442 1955 c12 -14 23 -25 25 -25 9 0 1 20 -13 34 -25 26 -36 18 -12
-9z"/>
<path d="M2444 1892 c0 -10 6 -19 13 -19 8 0 9 6 2 19 -5 10 -11 18 -12 18 -2
0 -3 -8 -3 -18z"/>
<path d="M2410 1891 c0 -5 5 -13 10 -16 6 -3 10 -2 10 4 0 5 -4 13 -10 16 -5
3 -10 2 -10 -4z"/>
<path d="M2394 1631 c5 -8 3 -16 -5 -22 -16 -10 -5 -24 29 -34 13 -4 22 -2 22
4 0 6 -5 11 -11 11 -6 0 -8 9 -3 23 3 12 3 19 -1 15 -5 -4 -15 -2 -23 5 -13
10 -14 9 -8 -2z"/>
<path d="M2505 1389 c-4 -6 -5 -12 -2 -15 2 -3 7 2 10 11 7 17 1 20 -8 4z"/>
<path d="M2510 1356 c0 -2 7 -9 15 -16 9 -7 15 -8 15 -2 0 5 -7 12 -15 16 -8
3 -15 4 -15 2z"/>
<path d="M2362 1250 c-18 -29 -15 -38 4 -12 9 13 14 25 12 27 -2 2 -9 -5 -16
-15z"/>
<path d="M2500 1244 c0 -8 5 -12 10 -9 6 4 8 11 5 16 -9 14 -15 11 -15 -7z"/>
<path d="M2495 1200 c3 -5 8 -10 11 -10 2 0 4 5 4 10 0 6 -5 10 -11 10 -5 0
-7 -4 -4 -10z"/>
<path d="M2320 1189 c0 -5 5 -7 10 -4 6 3 10 8 10 11 0 2 -4 4 -10 4 -5 0 -10
-5 -10 -11z"/>
<path d="M2530 1175 c7 -9 15 -13 17 -11 7 7 -7 26 -19 26 -6 0 -6 -6 2 -15z"/>
<path d="M2477 1163 c3 -7 6 -13 8 -13 2 0 5 6 8 13 3 8 -1 14 -8 14 -7 0 -11
-6 -8 -14z"/>
<path d="M2340 1160 c-8 -5 -12 -12 -9 -15 4 -3 12 1 19 10 14 17 11 19 -10 5z"/>
<path d="M2376 1132 c-4 -4 -12 -7 -17 -7 -5 0 -9 -3 -10 -7 0 -4 -4 -21 -9
-38 -5 -18 -5 -30 1 -30 5 0 9 4 9 8 0 11 35 52 44 52 3 0 6 -20 6 -44 0 -42
-18 -73 -35 -58 -5 4 -5 1 -1 -5 4 -7 3 -20 -2 -29 -11 -19 -4 -54 9 -54 5 0
9 7 9 15 0 8 5 15 11 15 5 0 7 -5 3 -12 -4 -7 -3 -8 4 -4 7 4 12 12 12 18 0 6
8 17 18 25 16 13 15 14 -5 8 -20 -6 -21 -4 -13 24 5 17 11 35 14 40 7 10 -19
77 -32 85 -5 3 -12 2 -16 -2z"/>
<path d="M2436 1113 c-6 -14 -5 -15 5 -6 7 7 10 15 7 18 -3 3 -9 -2 -12 -12z"/>
<path d="M3028 783 c7 -3 16 -2 19 1 4 3 -2 6 -13 5 -11 0 -14 -3 -6 -6z"/>
<path d="M2317 741 c-4 -17 -3 -21 5 -13 5 5 8 16 6 23 -3 8 -7 3 -11 -10z"/>
</g>
</svg>
